<svg xmlns="http://www.w3.org/2000/svg" width="100" height="100" viewBox="0 0 100 100" fill="#4F46E5">
  <path d="m 79.6565,32.463 -8.131,-0.06 c -2.196,0 -3.982,-1.871 -3.982,-4.172 l -0.006,-7.888 c 0,-5.477 -4.541,-9.933 -10.122,-9.933 h -14.832 c -5.581,0 -10.123,4.456 -10.123,9.933 l 0.053,22.785 c 0,5.043 3.853,9.219 8.82,9.848 h 16.636 c 1.831,0.205 3.301,1.545 3.617,3.263 v 23.419 c 0,2.195 -1.872,3.981 -4.172,3.981 h -14.831 c -2.3,0 -4.172,-1.786 -4.172,-3.981 v -9.306 c -0.549,-4.699 -4.453,-8.411 -9.297,-8.765 h -8.772 c -2.196,0 -3.982,-1.871 -3.982,-4.172 v -14.83 c 0,-2.301 1.786,-4.172 3.982,-4.172 h 6.168 v -5.951 h -6.168 c -5.478,0 -9.933,4.541 -9.933,10.123 v 14.83 c 0,5.582 4.455,10.123 9.933,10.123 h 8.51 c 1.825,0.207 3.29,1.542 3.608,3.252 v 8.867 c 0,5.477 4.542,9.933 10.123,9.933 h 14.831 c 5.581,0 10.122,-4.456 10.122,-9.933 v -16.56 h 0.067 l -0.067,-7.294 c -0.544,-4.709 -4.457,-8.43 -9.313,-8.777 h -16.442 c -1.892,-0.377 -3.316,-1.98 -3.316,-3.896 l -0.053,-22.785 c 0,-2.195 1.872,-3.981 4.172,-3.981 h 14.831 c 2.3,0 4.172,1.786 4.172,3.981 l 0.005,7.888 c 0,5.581 4.457,10.123 9.934,10.123 l 8.131,0.06 c 2.195,0 3.982,1.871 3.982,4.172 v 14.83 c 0,2.301 -1.787,4.172 -3.982,4.172 h -6.168 v 5.951 h 6.168 c 5.477,0 9.933,-4.541 9.933,-10.123 v -14.83 c -0.002,-5.584 -4.458,-10.125 -9.934,-10.125 z" />
</svg>
